<svg width="356" height="357" viewBox="0 0 356 357" fill="none" xmlns="http://www.w3.org/2000/svg">
<path d="M297.5 0.5H55C21 0.5 0 40.5 0 60V301C0 318 24.5 356.5 57 356.5H298C331 356.5 355 320.5 355 303.5C355 286.5 356 70.5 355 55.5C354 40.5 336.5 0.5 297.5 0.5Z" fill="#C4C4C4"/>
<path fill-rule="evenodd" clip-rule="evenodd" d="M80.5 92V251.5H110.5V200.5C137.667 204.5 192 198.8 192 144C192 84.5376 125.312 89.1257 92.6704 91.3714C87.7092 91.7128 83.5345 92 80.5 92ZM111 121V172.5C111 172.5 159 179.5 160 145.5C161 111.5 111 121 111 121Z" fill="#292929"/>
<path d="M289 134C254 121.5 211 127.5 208 163.5C205.697 191.131 228.268 200.195 244.94 206.891C254.425 210.7 262 213.742 262 219C262 233.5 225.5 227.333 208 219V251.5C239 259 288.884 260 294.5 219C297.715 195.53 276.605 186.478 259.372 179.089C246.501 173.57 235.793 168.979 239 160C249.5 149.5 276 156 289 163.5V134Z" fill="#292929"/>
</svg>
